<svg width="82" height="72" viewBox="0 0 82 72" fill="none" xmlns="http://www.w3.org/2000/svg">
<path d="M27.4614 15.8537C34.3782 7.19395 47.5443 7.19396 54.4612 15.8537L68.7364 33.726C77.774 45.0409 69.7177 61.7865 55.2365 61.7865H26.6861C12.2049 61.7865 4.14851 45.0409 13.1861 33.726L27.4614 15.8537Z" fill="#F96A04"/>
<path d="M20.149 10.0127C30.8125 -3.33758 51.1106 -3.33754 61.774 10.0127L76.0494 27.8857C89.9819 45.3295 77.5619 71.1454 55.2369 71.1455H26.6862C4.36131 71.1453 -8.05878 45.3295 5.87366 27.8857L20.149 10.0127ZM54.4615 15.8535C47.5447 7.1939 34.3784 7.19388 27.4615 15.8535L13.1862 33.7256C4.14859 45.0404 12.2051 61.7859 26.6862 61.7861H55.2369L55.9108 61.7744C69.7423 61.2728 77.3879 45.3812 69.1481 34.2607L68.7369 33.7256L54.4615 15.8535Z" fill="#D95C03"/>
<path d="M50.0636 21.3345C50.0636 24.4248 46.3058 26.9301 41.6702 26.9301C37.0347 26.9301 33.2769 24.4248 33.2769 21.3345C33.2769 18.2441 37.0347 15.7389 41.6702 15.7389C46.3058 15.7389 50.0636 18.2441 50.0636 21.3345Z" fill="#FE7D21"/>
</svg>
