<svg width="369" height="306" viewBox="0 0 369 306" fill="none" xmlns="http://www.w3.org/2000/svg">
<path d="M24.7226 68.1435C44.6172 35.4389 78.0082 10.5127 126.538 3.66394C175.146 -3.19568 210.46 11.5481 242.733 40.6223C274.841 69.5474 304.084 112.802 340.598 162.954C363.045 193.784 370.014 218.076 365.382 237.25C360.738 256.472 344.625 269.8 322.79 279.151C300.923 288.515 272.899 294.083 243.626 297.559C214.329 301.039 183.637 302.439 156.387 303.407C101.337 305.363 64.7645 286.172 41.1542 260.383C17.609 234.664 7.08941 202.54 3.76338 178.726C-1.49304 141.092 4.86133 100.793 24.7226 68.1435Z" fill="#F2F1F1" stroke="#D0D0D0" stroke-width="4"/>
</svg>
